<?xml version="1.0" encoding="UTF-8" standalone="no"?>
<!-- Created with Inkscape (http://www.inkscape.org/) -->

<svg
   width="2500"
   height="2500"
   viewBox="0 0 661.45831 661.45833"
   version="1.1"
   id="svg1"
   inkscape:version="1.3.2 (091e20ef0f, 2023-11-25)"
   sodipodi:docname="emu.svg"
   inkscape:export-filename="../emu.png"
   inkscape:export-xdpi="96"
   inkscape:export-ydpi="96"
   xmlns:inkscape="http://www.inkscape.org/namespaces/inkscape"
   xmlns:sodipodi="http://sodipodi.sourceforge.net/DTD/sodipodi-0.dtd"
   xmlns="http://www.w3.org/2000/svg"
   xmlns:svg="http://www.w3.org/2000/svg">
  <sodipodi:namedview
     id="namedview1"
     pagecolor="#212121"
     bordercolor="#000000"
     borderopacity="0.25"
     inkscape:showpageshadow="2"
     inkscape:pageopacity="0.0"
     inkscape:pagecheckerboard="0"
     inkscape:deskcolor="#191919"
     inkscape:document-units="mm"
     showborder="false"
     inkscape:zoom="0.36189374"
     inkscape:cx="1099.7703"
     inkscape:cy="849.69692"
     inkscape:window-width="2560"
     inkscape:window-height="1355"
     inkscape:window-x="0"
     inkscape:window-y="0"
     inkscape:window-maximized="1"
     inkscape:current-layer="layer1"
     inkscape:export-bgcolor="#21212100" />
  <defs
     id="defs1" />
  <g
     inkscape:label="Layer 1"
     inkscape:groupmode="layer"
     id="layer1">
    <rect
       style="fill:#ffffff;stroke-width:0.186828"
       id="rect3"
       width="158.40471"
       height="51.862644"
       x="292.5806"
       y="296.74191"
       rx="44.091026"
       ry="14.979445"
       transform="matrix(0.99989196,0.0146994,-0.01648022,0.99986419,0,0)" />
    <rect
       style="fill:#ffffff;stroke-width:0.228829"
       id="rect3-6"
       width="237.5928"
       height="51.871449"
       x="203.15862"
       y="-274.95642"
       rx="66.132561"
       ry="14.981987"
       transform="matrix(-0.00980019,0.99995198,-0.99969451,-0.02471613,0,0)" />
    <rect
       style="fill:#ffffff;stroke-width:0.186827"
       id="rect3-7"
       width="158.40471"
       height="51.862644"
       x="291.12332"
       y="208.32483"
       rx="44.091022"
       ry="14.979445"
       transform="matrix(0.99989196,0.0146994,-0.01648022,0.99986419,0,0)" />
    <rect
       style="fill:#ffffff;stroke-width:0.186828"
       id="rect3-7-6"
       width="158.40471"
       height="51.862644"
       x="294.0379"
       y="385.15897"
       rx="44.091026"
       ry="14.979445"
       transform="matrix(0.99989196,0.0146994,-0.01648022,0.99986419,0,0)" />
    <path
       id="path3"
       style="fill:#ffffff;stroke-width:0.311781"
       d="m 330.72917,132.29167 a 198.4375,198.4375 0 0 0 -198.4375,198.4375 198.4375,198.4375 0 0 0 198.4375,198.4375 198.4375,198.4375 0 0 0 198.4375,-198.4375 198.4375,198.4375 0 0 0 -198.4375,-198.4375 z m 0,13.22917 A 185.20833,185.20833 0 0 1 515.93751,330.72917 185.20833,185.20833 0 0 1 330.72917,515.93751 185.20833,185.20833 0 0 1 145.52084,330.72917 185.20833,185.20833 0 0 1 330.72917,145.52084 Z" />
  </g>
</svg>
